<?xml version="1.0" encoding="utf-8"?>
<!-- Generator: Adobe Illustrator 21.0.0, SVG Export Plug-In . SVG Version: 6.00 Build 0)  -->
<svg version="1.1" id="Layer_1" xmlns="http://www.w3.org/2000/svg" xmlns:xlink="http://www.w3.org/1999/xlink" x="0px" y="0px"
	 viewBox="0 0 512 512" style="enable-background:new 0 0 512 512;" xml:space="preserve">
<g>
	<path d="M413.5,196.9c-10.9,0-19.7,8.8-19.7,19.7v226.5c0,4.1-0.8,8-2.3,11.5c-2.2,5.3-6,9.8-10.7,13c-2.4,1.6-5,2.8-7.7,3.7
		c-2.8,0.9-5.7,1.3-8.8,1.3H68.9c-4.1,0-8-0.8-11.5-2.3c-5.3-2.2-9.8-6-13-10.7c-1.6-2.4-2.8-5-3.7-7.7c-0.9-2.8-1.3-5.7-1.3-8.8
		V147.7c0-4.1,0.8-8,2.3-11.5c2.2-5.3,6-9.8,10.7-13c2.4-1.6,5-2.9,7.7-3.7c2.8-0.9,5.7-1.3,8.8-1.3H275c10.9,0,19.7-8.8,19.7-19.7
		c0-10.9-8.8-19.7-19.7-19.7H68.9c-9.5,0-18.6,1.9-26.8,5.4c-12.4,5.2-22.9,14-30.3,24.9c-3.7,5.5-6.7,11.6-8.7,18.1
		S0,140.6,0,147.7v295.4c0,9.5,1.9,18.6,5.4,26.8c5.2,12.4,14,22.9,24.9,30.3c5.5,3.7,11.6,6.7,18.1,8.7s13.4,3.1,20.5,3.1h295.4
		c9.5,0,18.6-1.9,26.8-5.4c12.4-5.2,22.9-14,30.3-24.9c3.7-5.5,6.7-11.6,8.7-18.1s3.1-13.4,3.1-20.5V216.6
		C433.2,205.7,424.4,196.9,413.5,196.9z"/>
	<path d="M506.3,5.9c-3.7-3.7-8.7-5.8-13.9-5.8H354.5c-10.9,0-19.7,8.8-19.7,19.7c0,10.8,8.8,19.6,19.7,19.6h90.4L202.7,281.5
		c-7.7,7.7-7.7,20.2,0,27.8s20.1,7.7,27.8,0L472.7,67.2v90.4c0,10.9,8.8,19.7,19.7,19.7s19.7-8.8,19.7-19.7V19.8
		C512.1,14.6,510,9.5,506.3,5.9z"/>
</g>
</svg>
