<?xml version="1.0" encoding="utf-8"?>
<!-- Generator: Adobe Illustrator 19.0.0, SVG Export Plug-In . SVG Version: 6.00 Build 0)  -->
<svg version="1.1" id="Layer_1" xmlns="http://www.w3.org/2000/svg" xmlns:xlink="http://www.w3.org/1999/xlink" x="0px" y="0px"
	 viewBox="0 0 512 512" style="enable-background:new 0 0 512 512;" xml:space="preserve">
<g id="XMLID_2_">
	<path id="XMLID_7_" d="M191.7,156c-11.1,17.6-24.1,43.5-38.9,77.8c-4.6-8.3-7.4-15.7-10.2-20.4c-2.8-5.6-6.5-11.1-11.1-17.6
		c-4.6-6.5-9.3-12-14.8-15.7c-4.6-3.7-11.1-7.4-17.6-10.2c-7.4-2.8-14.8-3.7-23.1-3.7H12c-2.8,0-4.6-0.9-6.5-2.8s-2.8-3.7-2.8-6.5
		v-54.6c0-2.8,0.9-4.6,2.8-6.5C7.4,94,9.3,93,12,93h63.9C123.1,92.1,162,113.4,191.7,156z M512,383.8c0,2.8-0.9,4.6-2.8,6.5
		L418.5,481c-1.9,1.9-3.7,2.8-6.5,2.8c-2.8,0-4.6-0.9-6.5-2.8c-1.9-1.9-2.8-3.7-2.8-6.5v-54.6c-6.5,0-13.9,0-24.1,0
		c-10.2,0-17.6,0-23.1,0c-5.6,0-12,0-20.4,0c-8.3,0-14.8-0.9-20.4-1.9c-4.6-0.9-11.1-1.9-18.5-2.8c-7.4-0.9-13-2.8-17.6-5.6
		c-4.6-1.9-10.2-4.6-16.7-8.3s-12-7.4-16.7-11.1c-4.6-3.7-10.2-9.3-15.7-14.8c-5.6-5.6-11.1-12-15.7-19.4
		c11.1-17.6,24.1-43.5,38.9-77.8c4.6,8.3,7.4,15.7,10.2,20.4s6.5,11.1,11.1,17.6c4.6,6.5,9.3,12,14.8,15.7
		c4.6,3.7,11.1,7.4,17.6,10.2s14.8,3.7,23.1,3.7h73.1v-54.6c0-2.8,0.9-4.6,2.8-6.5c1.9-1.9,3.7-2.8,6.5-2.8c1.9,0,4.6,0.9,6.5,2.8
		l90.7,90.7C511.1,378.2,512,381,512,383.8z M512,129.2c0,2.8-0.9,4.6-2.8,6.5l-90.7,90.7c-1.9,1.9-3.7,2.8-6.5,2.8
		c-2.8,0-4.6-0.9-6.5-2.8c-1.9-1.9-2.8-3.7-2.8-6.5v-54.6h-73.1c-9.3,0-17.6,1.9-25,4.6c-7.4,2.8-13.9,7.4-19.4,13
		c-5.6,5.6-10.2,11.1-14.8,17.6s-8.3,13-13,22.2c-6.5,12-13.9,27.8-22.2,48.1c-5.6,13-10.2,23.1-13.9,31.5
		c-3.7,8.3-9.3,18.5-15.7,29.6s-12,21.3-18.5,28.7c-6.5,7.4-13,15.7-21.3,23.1c-8.3,8.3-16.7,14.8-25.9,19.4
		c-9.3,4.6-18.5,9.3-30.6,12c-11.1,2.8-23.1,4.6-36.1,4.6H9.3c-2.8,0-4.6-0.9-6.5-2.8c-1.9-1.9-2.8-3.7-2.8-6.5V356
		c0-2.8,0.9-4.6,2.8-6.5c1.9-1.9,3.7-2.8,6.5-2.8h63.9c9.3,0,17.6-1.9,25-4.6c7.4-2.8,13.9-7.4,19.4-13c5.6-5.6,10.2-11.1,14.8-17.6
		c4.6-6.5,8.3-13,13-22.2c6.5-12,13.9-27.8,22.2-48.1c5.6-13,10.2-23.1,13.9-31.5c3.7-8.3,9.3-18.5,15.7-29.6
		c6.5-11.1,12-21.3,18.5-28.7c6.5-7.4,13-15.7,21.3-23.1c8.3-8.3,16.7-14.8,25.9-19.4c9.3-4.6,18.5-9.3,30.6-12
		c11.1-2.8,23.1-4.6,36.1-4.6h73.1V37.5c0-2.8,0.9-4.6,2.8-6.5c1.9-1.9,3.7-2.8,6.5-2.8c1.9,0,4.6,0.9,6.5,2.8l90.7,90.7
		C511.1,123.6,512,126.4,512,129.2z"/>
</g>
</svg>
