<?xml version="1.0" encoding="UTF-8" standalone="no" ?>
<!DOCTYPE svg PUBLIC "-//W3C//DTD SVG 1.1//EN" "http://www.w3.org/Graphics/SVG/1.1/DTD/svg11.dtd">
<svg xmlns="http://www.w3.org/2000/svg" xmlns:xlink="http://www.w3.org/1999/xlink" version="1.1" width="30" height="30" viewBox="0 0 30 30" xml:space="preserve">
<desc>Created with Fabric.js 4.6.0</desc>
<defs>
</defs>
<g transform="matrix(1 0 0 1 15.68 14.27)" id="-8gLoRZ8oEuhZpt9-GanS"  >
<g style="" vector-effect="non-scaling-stroke"   >
		<g transform="matrix(0.15 0 0 0.15 -6.31 0.61)" id="7SzHdGw7MSQrAjwrVPhYw"  >
<path style="stroke: none; stroke-width: 1; stroke-dasharray: none; stroke-linecap: butt; stroke-dashoffset: 0; stroke-linejoin: miter; stroke-miterlimit: 4; fill: rgb(35,31,32); fill-rule: nonzero; opacity: 1;" vector-effect="non-scaling-stroke"  transform=" translate(-64.66, -100)" d="M 100 175.69 C 98.7525842395091 175.68900074203933 97.55059272638097 175.2217577502892 96.63 174.38 L 48.06 130 L 29.31 130 C 26.548576250846033 130 24.31 127.76142374915396 24.31 125 L 24.31 75 C 24.31 72.23857625084604 26.548576250846033 70 29.31 70 L 48.06 70 L 96.63 25.62 C 98.09272637653423 24.285444073995922 100.20519429149903 23.93978317513549 102.01699112848192 24.738532318321493 C 103.82878796546481 25.5372814615075 104.99855238141495 27.329948011631505 105 29.31 L 105 170.69 C 105 173.45142374915397 102.76142374915396 175.69 100 175.69 Z M 34.31 120 L 50 120 C 51.24741576049089 120.00099925796067 52.449407273619016 120.46824224971078 53.37 121.31 L 95 159.31 L 95 40.65 L 53.37 78.65 C 52.455474339581386 79.50631861501192 51.25279576723437 79.98810379978 50 80 L 34.31 80 Z" stroke-linecap="round" />
</g>
		<g transform="matrix(0.15 0 0 0.15 2.44 0.61)" id="_H03Dg3kmrbHBLtZ6vj3t"  >
<path style="stroke: none; stroke-width: 1; stroke-dasharray: none; stroke-linecap: butt; stroke-dashoffset: 0; stroke-linejoin: miter; stroke-miterlimit: 4; fill: rgb(35,31,32); fill-rule: nonzero; opacity: 1;" vector-effect="non-scaling-stroke"  transform=" translate(-123.02, -100.03)" d="M 119.4 122.53 C 117.37930470185083 122.529571995802 115.55750468148746 121.3128957588554 114.78295606841974 119.44653992002276 C 114.00840745535203 117.58018408119011 114.43338904217734 115.43108030737976 115.86 114 C 123.58040390077282 106.2632194271417 123.58040390077281 93.7367805728583 115.86 86 C 113.9651389524595 84.03810556517844 113.99223813051452 80.91957611489443 115.92090712270448 78.99090712270447 C 117.84957611489443 77.06223813051452 120.96810556517846 77.0351389524595 122.93 78.93 C 134.54871263500627 90.57405958382043 134.54871263500627 109.4259404161796 122.93 121.07000000000001 C 121.99294463540342 122.00468953507936 120.72352453858569 122.52971881025044 119.4 122.53 Z" stroke-linecap="round" />
</g>
		<g transform="matrix(0.15 0 0 0.15 5.64 0.61)" id="I-8wZbg90oc43Mv5diBFE"  >
<path style="stroke: none; stroke-width: 1; stroke-dasharray: none; stroke-linecap: butt; stroke-dashoffset: 0; stroke-linejoin: miter; stroke-miterlimit: 4; fill: rgb(35,31,32); fill-rule: nonzero; opacity: 1;" vector-effect="non-scaling-stroke"  transform=" translate(-144.34, -99.97)" d="M 137.08 140.21 C 135.05491119497606 140.21362323797726 133.22761521427717 138.99537126416678 132.4521569032261 137.1246328527611 C 131.67669859217503 135.2538944413554 132.1062315899017 133.1001419308205 133.54000000000002 131.67000000000002 C 141.9414021868713 123.271653229429 146.66151772431283 111.87921660650763 146.66151772431283 100.00000000000003 C 146.66151772431283 88.12078339349243 141.9414021868713 76.72834677057104 133.54000000000002 68.33000000000003 C 132.24021707773443 67.07462764869238 131.7189370140082 65.21561053928906 132.17651421708527 63.46746338053351 C 132.63409142016235 61.71931622177796 133.99931622177795 60.35409142016236 135.7474633805335 59.89651421708527 C 137.49561053928906 59.438937014008175 139.35462764869237 59.96021707773441 140.61 61.260000000000005 C 150.88611249229254 71.53362393794627 156.65938162125474 85.46914191203447 156.65938162125474 100 C 156.65938162125477 114.5308580879655 150.88611249229254 128.4663760620537 140.61 138.73999999999998 C 139.6745802115655 139.67835686847786 138.40495856004816 140.20706616811822 137.08 140.21 Z" stroke-linecap="round" />
</g>
		<g transform="matrix(0.15 0 0 0.15 8.34 0.61)" id="NCkBWYy81Tc6oMRDtppyU"  >
<path style="stroke: none; stroke-width: 1; stroke-dasharray: none; stroke-linecap: butt; stroke-dashoffset: 0; stroke-linejoin: miter; stroke-miterlimit: 4; fill: rgb(35,31,32); fill-rule: nonzero; opacity: 1;" vector-effect="non-scaling-stroke"  transform=" translate(-162.35, -99.97)" d="M 152 155.13 C 149.97930470185082 155.129571995802 148.15750468148747 153.9128957588554 147.38295606841976 152.04653992002275 C 146.60840745535205 150.1801840811901 147.03338904217736 148.03108030737974 148.46 146.6 C 174.19224630858417 120.86178156363626 174.19224630858417 79.1382184363637 148.45999999999998 53.39999999999998 C 147.16021707773442 52.14462764869236 146.63893701400818 50.28561053928904 147.09651421708526 48.53746338053349 C 147.55409142016234 46.78931622177794 148.91931622177793 45.42409142016234 150.6674633805335 44.96651421708525 C 152.41561053928905 44.508937014008154 154.27462764869236 45.03021707773439 155.53 46.329999999999984 C 169.76437530055853 60.56405952326581 177.7611906224854 79.86977668506815 177.7611906224854 99.99999999999997 C 177.7611906224854 120.13022331493178 169.76437530055853 139.43594047673417 155.53 153.67 C 154.59294463540343 154.60468953507936 153.32352453858567 155.12971881025044 152 155.13 Z" stroke-linecap="round" />
</g>
		<g transform="matrix(0.13 0 0 0.15 0.28 0.61)" id="fF4Fm2K1dnXL1VH-PlYZV"  >
<path style="stroke: rgb(0,0,0); stroke-width: 2; stroke-dasharray: none; stroke-linecap: butt; stroke-dashoffset: 0; stroke-linejoin: miter; stroke-miterlimit: 4; fill: rgb(35,31,32); fill-opacity: 0; fill-rule: nonzero; opacity: 1;" vector-effect="non-scaling-stroke"  transform=" translate(0, 0)" d="M -102.52901 -52.62222 L 102.52901 52.62222" stroke-linecap="round" />
</g>
</g>
</g>
</svg>